HIERARCHY
ROOT Hips
{
	OFFSET 0.000000 0.000000 0.000000
	CHANNELS 6 Xposition Yposition Zposition Zrotation Yrotation Xrotation 
	JOINT LHipJoint
	{
		OFFSET 0.000000 0.000000 0.000000
		CHANNELS 3 Zrotation Yrotation Xrotation
		JOINT LeftUpLeg
		{
			OFFSET 1.363060 -1.794630 0.839290
			CHANNELS 3 Zrotation Yrotation Xrotation
			JOINT LeftLeg
			{
				OFFSET 2.448110 -6.726130 0.000000
				CHANNELS 3 Zrotation Yrotation Xrotation
				JOINT LeftFoot
				{
					OFFSET 2.562200 -7.039590 0.000000
					CHANNELS 3 Zrotation Yrotation Xrotation
					JOINT LeftToeBase
					{
						OFFSET 0.157640 -0.433110 2.322550
						CHANNELS 3 Zrotation Yrotation Xrotation
						End Site
						{
							OFFSET 0.000000 0.000000 0.000000
						}
					}
				}
			}
		}
	}
	JOINT RHipJoint
	{
		OFFSET 0.000000 0.000000 0.000000
		CHANNELS 3 Zrotation Yrotation Xrotation
		JOINT RightUpLeg
		{
			OFFSET -1.305520 -1.794630 0.839290
			CHANNELS 3 Zrotation Yrotation Xrotation
			JOINT RightLeg
			{
				OFFSET -2.542530 -6.985550 0.000000
				CHANNELS 3 Zrotation Yrotation Xrotation
				JOINT RightFoot
				{
					OFFSET -2.568260 -7.056230 0.000000
					CHANNELS 3 Zrotation Yrotation Xrotation
					JOINT RightToeBase
					{
						OFFSET -0.164730 -0.452590 2.363150
						CHANNELS 3 Zrotation Yrotation Xrotation
						End Site
						{
							OFFSET 0.000000 0.000000 0.000000
						}
					}
				}
			}
		}
	}
	JOINT LowerBack
	{
		OFFSET 0.000000 0.000000 0.000000
		CHANNELS 3 Zrotation Yrotation Xrotation
		JOINT Spine
		{
			OFFSET 0.028270 2.035590 -0.193380
			CHANNELS 3 Zrotation Yrotation Xrotation
			JOINT Spine1
			{
				OFFSET 0.056720 2.048850 -0.042750
				CHANNELS 3 Zrotation Yrotation Xrotation
				JOINT Neck
				{
					OFFSET 0.000000 0.000000 0.000000
					CHANNELS 3 Zrotation Yrotation Xrotation
					JOINT Neck1
					{
						OFFSET -0.054170 1.746240 0.172020
						CHANNELS 3 Zrotation Yrotation Xrotation
						JOINT Head
						{
							OFFSET 0.104070 1.761360 -0.123970
							CHANNELS 3 Zrotation Yrotation Xrotation
							End Site
							{
								OFFSET 0.000000 0.000000 0.000000
							}
						}
					}
				}
				JOINT LeftShoulder
				{
					OFFSET 0.000000 0.000000 0.000000
					CHANNELS 3 Zrotation Yrotation Xrotation
					JOINT LeftArm
					{
						OFFSET 3.362410 1.200890 -0.311210
						CHANNELS 3 Zrotation Yrotation Xrotation
						JOINT LeftForeArm
						{
							OFFSET 4.983000 -0.000000 -0.000000
							CHANNELS 3 Zrotation Yrotation Xrotation
							JOINT LeftHand
							{
								OFFSET 3.483560 -0.000000 -0.000000
								CHANNELS 3 Zrotation Yrotation Xrotation
								JOINT LeftFingerBase
								{
									OFFSET 0.000000 0.000000 0.000000
									CHANNELS 3 Zrotation Yrotation Xrotation
									JOINT LeftHandIndex1
									{
										OFFSET 0.715260 -0.000000 -0.000000
										CHANNELS 3 Zrotation Yrotation Xrotation
										End Site
										{
											OFFSET 0.000000 0.000000 0.000000
										}
									}
								}
								JOINT LThumb
								{
									OFFSET 0.000000 0.000000 0.000000
									CHANNELS 3 Zrotation Yrotation Xrotation
									End Site
									{
										OFFSET 0.000000 0.000000 0.000000
									}
								}
							}
						}
					}
				}
				JOINT RightShoulder
				{
					OFFSET 0.000000 0.000000 0.000000
					CHANNELS 3 Zrotation Yrotation Xrotation
					JOINT RightArm
					{
						OFFSET -3.136600 1.374050 -0.404650
						CHANNELS 3 Zrotation Yrotation Xrotation
						JOINT RightForeArm
						{
							OFFSET -5.241900 -0.000000 -0.000000
							CHANNELS 3 Zrotation Yrotation Xrotation
							JOINT RightHand
							{
								OFFSET -3.444170 -0.000000 -0.000000
								CHANNELS 3 Zrotation Yrotation Xrotation
								JOINT RightFingerBase
								{
									OFFSET 0.000000 0.000000 0.000000
									CHANNELS 3 Zrotation Yrotation Xrotation
									JOINT RightHandIndex1
									{
										OFFSET -0.622530 -0.000000 -0.000000
										CHANNELS 3 Zrotation Yrotation Xrotation
										End Site
										{
											OFFSET 0.000000 0.000000 0.000000
										}
									}
								}
								JOINT RThumb
								{
									OFFSET 0.000000 0.000000 0.000000
									CHANNELS 3 Zrotation Yrotation Xrotation
									End Site
									{
										OFFSET 0.000000 0.000000 0.000000
									}
								}
							}
						}
					}
				}
			}
		}
	}
}
MOTION
Frames: 6
Frame Time: 0.008333
0.457878 15.882125 1.792503 1.778068 43.145225 30.306310 -9.469249 1.642450 -6.519210 -19.336439 21.614939 -44.712386 -3.151381 4.297110 53.805004 3.222630 13.928367 -25.429733 -4.694400 0.000000 -45.425200 8.175443 1.371787 -0.910308 21.850654 -2.491791 -69.698476 2.245767 -4.512857 47.386922 -5.706113 -18.116839 -20.153842 -177.670300 -0.000000 -13.297200 3.688561 -3.397044 11.483228 0.158263 -3.206645 -0.539480 -5.329131 -3.154577 -0.390401 9.533947 -11.393084 -6.969926 -1.843263 -0.118764 -0.243612 0.000000 0.000000 0.000000 8.134164 3.904089 1.664787 -54.511669 5.377943 10.391624 -0.102942 -86.998461 -0.012537 1.406710 5.418342 0.069104 -0.095348 0.210129 -0.000000 0.000000 0.000000 0.000000 0.000000 0.000000 0.000000 7.728151 -7.728849 1.308855 70.969676 -12.758721 7.197416 0.572293 72.373506 -0.013886 -4.911049 3.907778 -0.180722 0.085960 -0.249296 -0.000000 0.000000 0.000000 0.000000 0.000000 0.000000 0.000000 
0.520567 15.882860 1.877827 2.010634 42.845008 30.401101 -9.565542 1.678647 -6.479370 -19.210653 21.625850 -43.958547 -3.149985 4.217123 53.386247 3.271832 14.308814 -25.351297 -4.783901 -0.000000 -45.570500 8.160682 1.393621 -0.924091 21.563222 -2.460533 -69.525239 2.144275 -4.539703 48.099041 -5.738748 -18.244520 -20.544808 -177.493500 0.000000 -13.140600 3.990217 -3.377525 11.508883 0.233348 -3.185564 -0.549667 -5.283280 -3.137972 -0.429876 9.442753 -11.239981 -6.973015 -1.882613 -0.121657 -0.244245 0.000000 0.000000 0.000000 8.028041 3.947692 1.664494 -55.325664 5.826316 10.595766 -0.106396 -86.920279 -0.012136 1.379774 5.369920 0.067107 -0.093061 0.209914 -0.000000 0.000000 0.000000 0.000000 0.000000 0.000000 0.000000 7.786989 -7.567155 1.316878 70.856044 -12.513961 6.832248 0.581364 72.206436 -0.014490 -5.083478 3.926941 -0.188018 0.088806 -0.250354 -0.000000 0.000000 0.000000 0.000000 0.000000 0.000000 0.000000 
0.583010 15.885836 1.964511 2.217854 42.527405 30.493482 -9.661693 1.715668 -6.439221 -19.090716 21.659055 -43.236385 -3.148025 4.139088 52.949762 3.316463 14.684586 -25.208058 -4.852100 0.000000 -45.702300 8.141902 1.399919 -0.932517 21.326098 -2.423555 -69.293238 2.062886 -4.551149 48.674720 -5.763156 -18.322453 -20.933660 -177.322900 -0.000000 -12.938700 4.285432 -3.351954 11.524437 0.305978 -3.158700 -0.560615 -5.240285 -3.115629 -0.464822 9.363987 -11.083459 -6.965867 -1.923517 -0.124810 -0.242016 0.000000 0.000000 0.000000 7.931942 3.994318 1.661094 -56.165486 6.288874 10.785494 -0.112997 -86.783768 -0.011727 1.355680 5.315746 0.065305 -0.090629 0.209545 -0.000000 0.000000 0.000000 0.000000 0.000000 0.000000 0.000000 7.867784 -7.406463 1.319152 70.731568 -12.240931 6.472163 0.590850 72.033443 -0.015078 -5.250137 3.945321 -0.195114 0.091623 -0.251395 -0.000000 0.000000 0.000000 0.000000 0.000000 0.000000 0.000000 
0.644902 15.891005 2.052848 2.414807 42.197083 30.591862 -9.755700 1.755101 -6.400295 -18.984554 21.714204 -42.543202 -3.144889 4.063055 52.502678 3.353366 15.041305 -24.989197 -4.891000 -0.000001 -45.836001 8.122770 1.393968 -0.935641 21.120232 -2.390171 -69.008569 1.999838 -4.549598 49.124350 -5.778541 -18.347065 -21.322013 -177.159400 0.000000 -12.741200 4.564125 -3.321590 11.530374 0.373957 -3.127177 -0.571546 -5.200417 -3.088489 -0.493298 9.301912 -10.930009 -6.949856 -1.965257 -0.128147 -0.237290 0.000000 0.000000 0.000000 7.852436 4.046830 1.654065 -57.027800 6.752540 10.967404 -0.123079 -86.580789 -0.011310 1.334301 5.254709 0.063505 -0.088085 0.209013 -0.000000 0.000000 0.000000 0.000000 0.000000 0.000000 0.000000 7.973728 -7.254310 1.314858 70.600163 -11.944709 6.115100 0.600212 71.862878 -0.015661 -5.412431 3.955780 -0.201711 0.094406 -0.252356 -0.000000 0.000000 0.000000 0.000000 0.000000 0.000000 0.000000 
0.706079 15.898294 2.142932 2.604922 41.857715 30.703308 -9.847645 1.797435 -6.361282 -18.892889 21.788892 -41.891680 -3.140204 3.990713 52.056785 3.379497 15.363518 -24.685632 -4.892400 0.000000 -45.998999 8.103416 1.377455 -0.929265 20.934704 -2.351299 -68.680491 1.952683 -4.535205 49.452636 -5.788299 -18.330490 -21.708839 -177.003400 0.000001 -12.602600 4.825587 -3.288817 11.520068 0.437735 -3.093726 -0.584060 -5.162401 -3.059349 -0.515400 9.252718 -10.783882 -6.923902 -2.005119 -0.131497 -0.229568 0.000000 0.000000 0.000000 7.777053 4.095058 1.643437 -57.897390 7.235945 11.130558 -0.135627 -86.328924 -0.010872 1.312186 5.190310 0.061603 -0.085373 0.208220 -0.000000 0.000000 0.000000 0.000000 0.000000 0.000000 0.000000 8.087686 -7.115689 1.304986 70.474663 -11.620784 5.772679 0.609878 71.681373 -0.016241 -5.575880 3.971530 -0.208608 0.097233 -0.253328 -0.000000 0.000000 0.000000 0.000000 0.000000 0.000000 0.000000 
0.766183 15.907630 2.234822 2.808480 41.513030 30.834166 -9.934558 1.844059 -6.324718 -18.823774 21.878350 -41.266435 -3.133076 3.920807 51.615960 3.392730 15.640906 -24.292171 -4.851700 0.000000 -46.209200 8.089280 1.355705 -0.917624 20.747603 -2.326541 -68.321271 1.918180 -4.513216 49.690228 -5.790083 -18.268175 -22.095202 -176.855500 0.000000 -12.527401 5.057053 -3.254056 11.500780 0.494200 -3.058265 -0.595683 -5.127099 -3.027828 -0.529029 9.223567 -10.651444 -6.892894 -2.043720 -0.134820 -0.220403 0.000000 0.000000 0.000000 7.721710 4.151836 1.629548 -58.777564 7.704793 11.292420 -0.151571 -86.007194 -0.010432 1.291708 5.118436 0.059699 -0.082626 0.207252 -0.000000 0.000000 0.000000 0.000000 0.000000 0.000000 0.000000 8.223251 -6.996620 1.288354 70.351990 -11.280602 5.434343 0.618463 71.515515 -0.016846 -5.739454 3.969817 -0.214705 0.100037 -0.254161 -0.000000 0.000000 0.000000 0.000000 0.000000 0.000000 0.000000 
